# xmcd CD database file
#
# Track frame offsets:
#	150
#	16419
#	31951
#	49128
#	66890
#	81305
#	95208
#	111679
#	127776
#	144846
#	161754
#	179888
#	199854
#	223106
#	238924
#	252303
#	271231
#	283400
#
# Disc length: 4023 seconds
#
# Revision: 0
# Processed by: cddbd v1.5.1PL2 Copyright (c) Steve Scherf et al.
# Submitted via: CDex 1.51
#
DISCID=200fb512
DTITLE=varios salsa - milenio tropical
DYEAR=1900
DGENRE=Salsa
TTITLE0=el bellon de elena
TTITLE1=no me bajo
TTITLE2=amalia batista
TTITLE3=los pleneros
TTITLE4=se me olvido otra vez
TTITLE5=la plena de terremoto
TTITLE6=la ultima noche
TTITLE7=la plena de los cantantes
TTITLE8=lagrimas
TTITLE9=cosas mias
TTITLE10=el amor del cantante
TTITLE11=me estoy enamorando
TTITLE12=dejame que llore sola
TTITLE13=te voy a iniciar un juicio
TTITLE14=recuerdos
TTITLE15=pasao de tragos
TTITLE16=melo y mela
TTITLE17=la tierra
EXTD=
EXTT0=
EXTT1=
EXTT2=
EXTT3=
EXTT4=
EXTT5=
EXTT6=
EXTT7=
EXTT8=
EXTT9=
EXTT10=
EXTT11=
EXTT12=
EXTT13=
EXTT14=
EXTT15=
EXTT16=
EXTT17=
PLAYORDER=
